# xmcd CD database file
#
# Track frame offsets:
#	150
#	29897
#	45525
#	71250
#	89104
#	129980
#	146643
#	167795
#	191988
#	214902
#	232926
#	262087
#
# Disc length: 3932 seconds
#
# Revision: 6
# Processed by: cddbd v1.5.2PL0 Copyright (c) Steve Scherf et al.
# Submitted via: CDex 1.51
#
DISCID=ba0f5a0c
DTITLE=Brad Mehldau - Largo
DYEAR=2002
DGENRE=Jazz
TTITLE0=When it rains
TTITLE1=You're vibing me
TTITLE2=Dusty McNugget
TTITLE3=Dropjes
TTITLE4=Paranoid android
TTITLE5=Franklin avenue
TTITLE6=Sabbath
TTITLE7=Dear prudence
TTITLE8=Free Willy
TTITLE9=Alvarado
TTITLE10=Wave - Mother nature's son
TTITLE11=I do
EXTD=YEAR: 2002
EXTT0=
EXTT1=
EXTT2=
EXTT3=
EXTT4=
EXTT5=
EXTT6=
EXTT7=
EXTT8=
EXTT9=
EXTT10=
EXTT11=
PLAYORDER=
